HIERARCHY
ROOT Hips
{
	OFFSET 0.00000 0.00000 0.00000
	CHANNELS 6 Xposition Yposition Zposition Zrotation Yrotation Xrotation 
	JOINT LHipJoint
	{
		OFFSET 0 0 0
		CHANNELS 3 Zrotation Yrotation Xrotation
		JOINT LeftHip
		{
			OFFSET 1.81638 -1.86202 0.89635
			CHANNELS 3 Zrotation Yrotation Xrotation
			JOINT LeftKnee
			{
				OFFSET 2.63464 -7.23861 0.00000
				CHANNELS 3 Zrotation Yrotation Xrotation
				JOINT LeftAnkle
				{
					OFFSET 2.45871 -6.75336 0.00000
					CHANNELS 3 Zrotation Yrotation Xrotation
					JOINT LeftToe
					{
						OFFSET 0.34235 -0.94059 2.20020
						CHANNELS 3 Zrotation Yrotation Xrotation
						End Site
						{
							OFFSET 0.00000 -0.00000 1.18611
						}
					}
				}
			}
		}
	}
	JOINT RHipJoint
	{
		OFFSET 0 0 0
		CHANNELS 3 Zrotation Yrotation Xrotation
		JOINT RightHip
		{
			OFFSET -1.84405 -1.86203 0.89635
			CHANNELS 3 Zrotation Yrotation Xrotation
			JOINT RightKnee
			{
				OFFSET -2.71067 -7.44751 0.00000
				CHANNELS 3 Zrotation Yrotation Xrotation
				JOINT RightAnkle
				{
					OFFSET -2.47159 -6.79060 0.00000
					CHANNELS 3 Zrotation Yrotation Xrotation
					JOINT RightToe
					{
						OFFSET -0.26223 -0.72048 2.36007
						CHANNELS 3 Zrotation Yrotation Xrotation
						End Site
						{
							OFFSET -0.00000 -0.00000 1.23343
						}
					}
				}
			}
		}
	}
	JOINT lowerback
	{
		OFFSET 0 0 0
		CHANNELS 3 Zrotation Yrotation Xrotation
		JOINT Chest
		{
			OFFSET 0.02089 1.99248 -0.22512
			CHANNELS 3 Zrotation Yrotation Xrotation
			JOINT Chest2
			{
				OFFSET 0.01476 2.01356 -0.03079
				CHANNELS 3 Zrotation Yrotation Xrotation
				JOINT lowerneck
				{
					OFFSET 0 0 0
					CHANNELS 3 Zrotation Yrotation Xrotation
					JOINT Neck
					{
						OFFSET 0.04846 1.65098 0.06663
						CHANNELS 3 Zrotation Yrotation Xrotation
						JOINT Head
						{
							OFFSET -0.06061 1.60634 -0.07565
							CHANNELS 3 Zrotation Yrotation Xrotation
							End Site
							{
								OFFSET -0.02954 1.73562 -0.03642
							}
						}
					}
				}
				JOINT LeftCollar
				{
					OFFSET 0 0 0
					CHANNELS 3 Zrotation Yrotation Xrotation
					JOINT LeftShoulder
					{
						OFFSET 3.45234 1.47051 -0.06993
CHANNELS 3 Zrotation Xrotation Yrotation
						JOINT LeftElbow
						{
OFFSET 0 -5.493130 0.000000
CHANNELS 3 Zrotation Xrotation Yrotation
							JOINT LeftWrist
							{
OFFSET 0 -3.290370 0.000000
CHANNELS 3 Zrotation Xrotation Yrotation
								JOINT lhand
								{
									OFFSET 0 0 0
CHANNELS 3 Zrotation Xrotation Yrotation
									JOINT LFingers
									{
OFFSET 0 -0.729660 0.000000
CHANNELS 3 Zrotation Xrotation Yrotation
										End Site
										{
OFFSET 0 -0.588270 0.000000
										}
									}
								}
								JOINT LThumb
								{
OFFSET 0 0.000000 0.000000
CHANNELS 3 Zrotation Xrotation Yrotation
									End Site
									{
OFFSET 0 -0.597250 0.597250
									}
								}
							}
						}
					}
				}
				JOINT RightCollar
				{
					OFFSET 0 0 0
					CHANNELS 3 Zrotation Yrotation Xrotation
					JOINT RightShoulder
					{
						OFFSET -3.41935 1.44327 0.20453
CHANNELS 3 Zrotation Xrotation Yrotation
						JOINT RightElbow
						{
OFFSET 0 -5.236840 0.000000
CHANNELS 3 Zrotation Xrotation Yrotation
							JOINT RightWrist
							{
OFFSET 0 -3.382510 0.000000
CHANNELS 3 Zrotation Xrotation Yrotation
								JOINT rhand
								{
									OFFSET 0 0 0
CHANNELS 3 Zrotation Xrotation Yrotation
									JOINT RFingers
									{
OFFSET 0 -0.691450 0.000000
CHANNELS 3 Zrotation Xrotation Yrotation
										End Site
										{
OFFSET 0 -0.557470 0.000000
										}
									}
								}
								JOINT RThumb
								{
OFFSET 0 0.000000 0.000000
CHANNELS 3 Zrotation Xrotation Yrotation
									End Site
									{
OFFSET 0 -0.565980 0.565980
									}
								}
							}
						}
					}
				}
			}
		}
	}
}
MOTION
Frames: 11
Frame Time: 0.008333333333333333
-37.811700 17.599500 15.129100 -18.120400 77.631900 -16.028100 0.000000 0.000000 0.000000 -17.660600 -7.666500 -15.752100 3.093800 10.845400 31.760300 0.754600 2.435500 -17.466200 0.001400 -0.244100 -0.670600 0.000000 0.000000 0.000000 26.735000 -5.019700 11.293000 -0.020700 -0.928000 2.550700 -0.286800 -15.877300 -25.143200 -0.273500 -3.364200 9.294300 3.751900 -2.834500 12.110000 2.678400 -2.988800 8.910400 0.987000 -1.222900 2.524100 -0.637600 4.763500 -1.212100 -5.168800 6.366900 -1.166300 -1.453300 3.203300 -0.001400 0.000000 -0.000000 0.000000 2.543000 11.158100 -22.828000 25.201700 -36.409500 8.409400 -1.251500 -4.838400 -14.447200 0.000000 0.000000 0.000000 -7.125000 0.000000 0.000000 -25.720100 42.828500 -1.485400 0.000000 -0.000000 0.000000 -17.757600 8.941000 42.976000 -20.245300 -30.936700 -5.656900 -9.509400 1.672600 13.017100 0.000000 0.000000 0.000000 7.125000 0.000000 -0.000000 16.016700 42.595700 0.977400
-37.812556 17.598629 15.132110 -18.142171 77.649812 -16.101308 0.000000 0.000000 0.000000 -17.658264 -7.637847 -15.711653 3.097912 10.851910 31.782035 0.761516 2.394160 -17.519155 0.001500 -0.249190 -0.684708 0.000000 0.000000 0.000000 26.749197 -5.035073 11.253467 -0.023418 -0.985624 2.709311 -0.118380 -16.750406 -24.813545 -0.339359 -3.743488 10.356043 3.929951 -2.899711 12.790929 2.502361 -3.015272 8.483502 0.743531 -1.244864 1.686361 -0.373273 4.809141 -1.076657 -5.049067 6.434219 -0.782383 -1.456929 3.227814 0.100318 0.000000 0.000000 0.000000 2.814029 11.889180 -22.809531 25.303778 -36.512810 8.470015 -1.277694 -4.907360 -14.411531 0.000000 0.000000 0.000000 -7.125000 0.000000 0.000000 -25.727964 42.793515 -1.509922 0.000000 0.000000 0.000000 -17.504988 9.569817 43.194891 -20.275605 -30.972955 -5.672482 -9.508084 1.752701 13.006795 0.000000 0.000000 0.000000 7.125000 0.000000 0.000000 16.014881 42.585520 0.981443
-37.811823 17.600354 15.135796 -18.122401 77.612301 -16.031625 0.000000 0.000000 0.000000 -17.626382 -7.636253 -15.784902 3.107031 10.866278 31.830275 0.768993 2.380637 -17.592203 0.001212 -0.221752 -0.609391 0.000000 0.000000 0.000000 26.826931 -4.867487 10.913138 -0.035077 -1.208210 3.321889 -0.169372 -16.631086 -25.098268 -0.330334 -3.693660 10.216427 4.110932 -2.934797 13.357508 2.333781 -3.010395 8.026299 0.499805 -1.254716 0.881281 -0.112131 4.862814 -0.960141 -4.934772 6.515269 -0.341669 -1.460385 3.258921 0.223298 0.000000 0.000000 0.000000 3.091862 12.645541 -22.824655 25.424671 -36.634940 8.542034 -1.170620 -4.994868 -14.456793 0.000000 0.000000 0.000000 -7.125000 0.000000 0.000000 -25.656272 42.845725 -1.469348 0.000000 0.000000 0.000000 -17.251509 10.210529 43.380839 -20.291298 -30.991721 -5.680535 -9.526226 1.863288 12.997039 0.000000 0.000000 0.000000 7.125000 0.000000 0.000000 15.996224 42.577889 0.983392
-37.815133 17.592781 15.136964 -18.202071 77.704159 -16.131272 0.000000 0.000000 0.000000 -17.631776 -7.605220 -15.837846 3.120105 10.886972 31.899641 0.756948 2.304649 -17.424951 0.009001 -0.607434 -1.669213 0.000000 0.000000 0.000000 26.881025 -4.860660 10.596812 -0.049857 -1.438976 3.957457 -0.316036 -16.038927 -25.587720 -0.284693 -3.431158 9.481552 4.339745 -3.027637 14.064422 2.149240 -3.062657 7.547148 0.228825 -1.294802 -0.023441 0.134022 4.892258 -0.818605 -4.792624 6.563886 0.106318 -1.453742 3.275442 0.342367 0.000000 0.000000 0.000000 3.390919 13.438011 -22.896046 25.517614 -36.728403 8.597616 -1.161451 -5.076574 -14.506295 0.000000 0.000000 0.000000 -7.125000 0.000000 0.000000 -25.668186 42.891307 -1.438898 0.000000 0.000000 0.000000 -17.015072 10.965658 43.637589 -20.476519 -31.212135 -5.776279 -9.447063 2.032857 13.631784 0.000000 0.000000 0.000000 7.125000 0.000000 0.000000 16.253401 43.185504 0.748911
-37.815208 17.591077 15.139185 -18.185521 77.709677 -16.123252 0.000000 0.000000 0.000000 -17.627254 -7.590191 -15.864271 3.132655 10.906779 31.965983 0.752399 2.300631 -17.374433 0.019470 -0.898550 -2.469597 0.000000 0.000000 0.000000 26.929573 -4.771123 10.319369 -0.065478 -1.651026 4.542273 -0.399246 -15.750127 -25.922468 -0.262821 -3.298172 9.110073 4.552326 -3.084143 14.709870 1.970831 -3.071908 7.092023 -0.034584 -1.315502 -0.866610 0.369043 4.918017 -0.691428 -4.659635 6.607734 0.543345 -1.448169 3.290978 0.460449 0.000000 0.000000 0.000000 3.677525 14.196057 -22.958537 25.615377 -36.826370 8.656059 -1.123858 -5.149768 -14.551604 0.000000 0.000000 0.000000 -7.125000 0.000000 0.000000 -25.654691 42.936227 -1.407266 0.000000 0.000000 0.000000 -16.775333 11.662275 43.831354 -20.583009 -31.338303 -5.831551 -9.406404 2.163034 13.970545 0.000000 0.000000 0.000000 7.125000 0.000000 0.000000 16.392128 43.509236 0.620727
-37.814458 17.590498 15.141627 -18.146717 77.690535 -16.100040 0.000000 0.000000 0.000000 -17.622932 -7.562947 -15.853999 3.136085 10.912068 31.984045 0.744180 2.326689 -17.298498 0.034619 -1.198384 -3.294810 0.000000 0.000000 0.000000 26.942712 -4.724065 10.240239 -0.071410 -1.724122 4.743817 -0.436439 -15.597569 -26.044461 -0.243275 -3.173767 8.762923 4.737967 -3.121728 15.263324 1.815968 -3.063652 6.705473 -0.266553 -1.327116 -1.584756 0.572918 4.930133 -0.580128 -4.546776 6.632457 0.922361 -1.444556 3.298870 0.562742 0.000000 0.000000 0.000000 3.930496 14.844979 -23.031422 25.694763 -36.905663 8.703710 -1.097265 -5.209944 -14.593179 0.000000 0.000000 0.000000 -7.125000 0.000000 0.000000 -25.648913 42.976575 -1.379315 0.000000 0.000000 0.000000 -16.565889 12.266560 43.972071 -20.677524 -31.449964 -5.880797 -9.363961 2.262778 14.247475 0.000000 0.000000 0.000000 7.125000 0.000000 0.000000 16.515477 43.772621 0.515025
-37.813481 17.590112 15.144381 -18.082938 77.653922 -16.059187 0.000000 0.000000 0.000000 -17.618615 -7.519744 -15.829250 3.136888 10.913377 31.988419 0.737926 2.351953 -17.243540 0.047390 -1.403996 -3.861022 0.000000 0.000000 0.000000 26.944765 -4.682302 10.229085 -0.074050 -1.755130 4.829481 -0.449093 -15.542238 -26.081398 -0.228637 -3.077554 8.494610 4.870250 -3.136932 15.683537 1.696451 -3.040485 6.417705 -0.443121 -1.328615 -2.122893 0.739197 4.930596 -0.490316 -4.465029 6.639504 1.211949 -1.445316 3.299769 0.640563 0.000000 0.000000 0.000000 4.131993 15.336688 -23.102897 25.752526 -36.963337 8.738416 -1.075651 -5.255113 -14.621791 0.000000 0.000000 0.000000 -7.125000 0.000000 0.000000 -25.642237 43.004680 -1.359690 0.000000 0.000000 0.000000 -16.397703 12.726854 44.053447 -20.747885 -31.532833 -5.917489 -9.331689 2.329796 14.428796 0.000000 0.000000 0.000000 7.125000 0.000000 0.000000 16.600932 43.944395 0.445416
-37.812327 17.589900 15.147641 -18.001363 77.593095 -16.003739 0.000000 0.000000 0.000000 -17.608606 -7.453543 -15.802762 3.137483 10.914392 31.991660 0.737058 2.361424 -17.239659 0.051525 -1.464373 -4.027564 0.000000 0.000000 0.000000 26.948341 -4.624132 10.242377 -0.075739 -1.775436 4.885474 -0.440516 -15.586053 -26.063619 -0.219126 -3.013382 8.316071 4.931454 -3.121572 15.920612 1.624608 -2.998129 6.258412 -0.545594 -1.315617 -2.421579 0.862520 4.919778 -0.428898 -4.427488 6.628947 1.384862 -1.453871 3.293314 0.686622 0.000000 0.000000 0.000000 4.266437 15.625288 -23.170864 25.784278 -36.994878 8.757496 -1.062835 -5.281934 -14.629909 0.000000 0.000000 0.000000 -7.125000 0.000000 0.000000 -25.634681 43.013276 -1.353302 0.000000 0.000000 0.000000 -16.280276 12.992913 44.063676 -20.788682 -31.580825 -5.938907 -9.308771 2.334353 14.524608 0.000000 0.000000 0.000000 7.125000 0.000000 0.000000 16.651542 44.034501 0.408584
-37.812031 17.589477 15.151047 -17.934643 77.548438 -15.959146 0.000000 0.000000 0.000000 -17.598706 -7.391835 -15.786052 3.138392 10.915831 31.996547 0.741078 2.341472 -17.272768 0.048330 -1.419013 -3.902464 0.000000 0.000000 0.000000 26.952509 -4.580046 10.246693 -0.077346 -1.794242 4.937301 -0.431991 -15.633270 -26.050228 -0.211299 -2.959460 8.165982 4.942069 -3.094979 16.023873 1.587803 -2.956454 6.189838 -0.591452 -1.298735 -2.549291 0.955384 4.901035 -0.387502 -4.422731 6.605719 1.468857 -1.468341 3.281467 0.708303 0.000000 0.000000 0.000000 4.352890 15.763602 -23.239573 25.795170 -37.005770 8.764116 -1.042020 -5.297333 -14.618251 0.000000 0.000000 0.000000 -7.125000 0.000000 0.000000 -25.612511 43.005067 -1.357555 0.000000 0.000000 0.000000 -16.201650 13.120609 44.037210 -20.864376 -31.669741 -5.978616 -9.171787 2.191569 14.811205 0.000000 0.000000 0.000000 7.125000 0.000000 0.000000 16.864644 44.295923 0.301917
-37.811602 17.588700 15.154553 -17.865163 77.506738 -15.911851 0.000000 0.000000 0.000000 -17.590684 -7.327409 -15.770666 3.139329 10.917260 32.001278 0.748796 2.304651 -17.337242 0.043518 -1.346386 -3.702355 0.000000 0.000000 0.000000 26.955298 -4.538263 10.249850 -0.079024 -1.813624 4.990899 -0.423686 -15.681442 -26.039234 -0.203228 -2.902766 8.008153 4.917477 -3.058509 16.023808 1.575215 -2.913296 6.190813 -0.598945 -1.277614 -2.545821 1.025648 4.877032 -0.359988 -4.445488 6.574030 1.484783 -1.488346 3.265997 0.711222 0.000000 0.000000 0.000000 4.403398 15.793041 -23.304550 25.792520 -37.003120 8.762478 -1.025948 -5.300002 -14.596674 0.000000 0.000000 0.000000 -7.125000 0.000000 0.000000 -25.590445 42.987355 -1.368279 0.000000 0.000000 0.000000 -16.153093 13.147886 43.990300 -20.930650 -31.747341 -6.013435 -9.070083 2.051665 15.088215 0.000000 0.000000 0.000000 7.125000 0.000000 0.000000 17.045408 44.551427 0.194482
-37.811238 17.588619 15.157797 -17.802704 77.477137 -15.866649 0.000000 0.000000 0.000000 -17.585568 -7.278705 -15.757097 3.140123 10.918485 32.005397 0.756455 2.270001 -17.402554 0.040126 -1.292922 -3.555099 0.000000 0.000000 0.000000 26.956389 -4.502281 10.236562 -0.081231 -1.838286 5.059068 -0.417802 -15.723283 -26.041588 -0.195998 -2.850680 7.863286 4.893341 -3.026093 16.015826 1.563840 -2.875927 6.193908 -0.604774 -1.259265 -2.536102 1.094815 4.852787 -0.339392 -4.474203 6.542005 1.497168 -1.509939 3.250273 0.714278 0.000000 0.000000 0.000000 4.452588 15.817259 -23.371899 25.787310 -36.997910 8.759342 -1.011667 -5.305601 -14.572457 0.000000 0.000000 0.000000 -7.125000 0.000000 0.000000 -25.568746 42.967015 -1.380826 0.000000 0.000000 0.000000 -16.107175 13.170355 43.941878 -20.980482 -31.805518 -6.039616 -9.013096 1.954739 15.290823 0.000000 0.000000 0.000000 7.125000 0.000000 0.000000 17.163291 44.740009 0.113571
